<?xml version="1.0" encoding="iso-8859-1"?>
<!-- Generator: Adobe Illustrator 16.0.0, SVG Export Plug-In . SVG Version: 6.00 Build 0)  -->
<!DOCTYPE svg PUBLIC "-//W3C//DTD SVG 1.1//EN" "http://www.w3.org/Graphics/SVG/1.1/DTD/svg11.dtd">
<svg version="1.1" id="Capa_1" xmlns="http://www.w3.org/2000/svg" xmlns:xlink="http://www.w3.org/1999/xlink" x="0px" y="0px"
	 width="45.987px" height="45.987px" viewBox="0 0 45.987 45.987" style="enable-background:new 0 0 45.987 45.987;"
	 xml:space="preserve">
<path d="M45.987,22.994c0-3.455-2.332-6.365-5.509-7.243c1.625-2.866,1.218-6.573-1.228-9.016
	c-2.442-2.442-6.149-2.851-9.017-1.227C29.357,2.333,26.448,0,22.993,0s-6.366,2.332-7.244,5.507
	c-2.865-1.624-6.572-1.215-9.016,1.228C4.29,9.177,3.882,12.884,5.506,15.75C2.332,16.628,0,19.539,0,22.994
	s2.332,6.364,5.507,7.241c-1.625,2.866-1.217,6.573,1.227,9.017c1.467,1.467,3.391,2.202,5.313,2.202
	c1.279,0,2.558-0.326,3.703-0.975c0.878,3.176,3.788,5.508,7.243,5.508s6.364-2.332,7.241-5.508
	c1.146,0.648,2.425,0.976,3.702,0.976c1.925,0,3.848-0.734,5.313-2.201c2.444-2.444,2.853-6.151,1.228-9.017
	C43.655,29.358,45.987,26.449,45.987,22.994z M22.994,36.458c-7.424,0-13.465-6.04-13.465-13.464
	c0-7.424,6.041-13.464,13.465-13.464c7.424,0,13.464,6.04,13.464,13.464C36.458,30.417,30.418,36.458,22.994,36.458z"/>
<path d="M22.994,12.539c-5.766,0-10.455,4.689-10.455,10.455c0,5.765,4.689,10.454,10.455,10.454
	c5.765,0,10.454-4.689,10.454-10.454C33.448,17.229,28.759,12.539,22.994,12.539z"/>
</svg>
